<svg xmlns="http://www.w3.org/2000/svg" viewBox="0 0 512 512" role="img" aria-labelledby="title desc">
  <title id="title">BizFlow Enterprise Logo</title>
  <desc id="desc">Rounded square business logo with a stylized B, bars, and upward arrow in blue gradients.</desc>
  <defs>
    <linearGradient id="bg" x1="0" y1="0" x2="1" y2="1">
      <stop offset="0%" stop-color="#06133f" />
      <stop offset="55%" stop-color="#0a2b7a" />
      <stop offset="100%" stop-color="#0e69e5" />
    </linearGradient>
    <linearGradient id="accent" x1="0" y1="0" x2="1" y2="1">
      <stop offset="0%" stop-color="#28d5ff" />
      <stop offset="100%" stop-color="#0e69e5" />
    </linearGradient>
    <linearGradient id="bars" x1="0" y1="0" x2="0" y2="1">
      <stop offset="0%" stop-color="#2cc7ff" />
      <stop offset="100%" stop-color="#1157d9" />
    </linearGradient>
  </defs>
  <rect x="24" y="24" width="464" height="464" rx="92" fill="url(#bg)" />
  <g opacity="0.2" fill="none" stroke="#ffffff" stroke-width="4">
    <circle cx="180" cy="190" r="64" />
    <circle cx="330" cy="140" r="30" />
  </g>
  <g>
    <rect x="108" y="235" width="26" height="98" rx="10" fill="url(#bars)" />
    <rect x="154" y="197" width="26" height="136" rx="10" fill="url(#bars)" />
    <rect x="200" y="150" width="26" height="183" rx="10" fill="url(#bars)" />
  </g>
  <path d="M118 318c44-41 87-65 130-74 34-7 62-6 86 5 16 7 29 18 39 32l-26 10c-8-11-18-18-32-22-18-6-39-7-61-3-37 7-77 26-119 61l-17-9z" fill="url(#accent)"/>
  <path d="M190 335c47-51 94-81 140-91 26-6 50-5 72 3 10 4 19 10 27 18l-25 21c-4-4-9-7-15-10-16-6-34-7-53-3-37 7-74 29-111 66l-35-4z" fill="url(#accent)" opacity="0.95"/>
  <path d="M314 186c42 0 72 15 89 44 5 8 8 17 10 27l-29 6c-2-8-5-14-9-20-11-17-29-26-55-27-33 0-65 11-97 33l-12-25c41-25 79-38 103-38z" fill="#ffffff" opacity="0.95"/>
  <path d="M268 150c44-3 76 3 98 18 14 10 23 23 27 40l-29 6c-3-9-8-17-16-23-17-12-43-17-78-14-19 1-39 5-60 12l-10-26c23-9 46-14 68-13z" fill="#ffffff"/>
  <path d="M299 150c16 0 28 2 38 7 12 6 20 14 24 25h-39c-3-4-8-7-14-9-9-3-21-4-35-3l-11-17c13-2 26-3 37-3z" fill="#ffffff" opacity="0.9"/>
  <g>
    <text x="96" y="386" font-family="Segoe UI, Arial, sans-serif" font-size="58" font-weight="700" fill="#ffffff">Biz</text>
    <text x="214" y="386" font-family="Segoe UI, Arial, sans-serif" font-size="58" font-weight="700" fill="#21a3ff">Flow</text>
    <text x="127" y="426" font-family="Segoe UI, Arial, sans-serif" font-size="16" letter-spacing="5" fill="#d6e7ff">ENTERPRISE</text>
  </g>
</svg>
